<?xml version="1.0" standalone="no"?>
<!DOCTYPE svg PUBLIC "-//W3C//DTD SVG 20010904//EN"
 "http://www.w3.org/TR/2001/REC-SVG-20010904/DTD/svg10.dtd">
<svg version="1.0" xmlns="http://www.w3.org/2000/svg"
 width="256.000000pt" height="256.000000pt" viewBox="0 0 256.000000 256.000000"
 preserveAspectRatio="xMidYMid meet">

<g transform="translate(0.000000,256.000000) scale(0.100000,-0.100000)"
fill="#207178" stroke="none">
<path d="M0 1280 l0 -1280 1280 0 1280 0 0 1280 0 1280 -1280 0 -1280 0 0
-1280z m1393 418 c58 -82 85 -135 117 -233 l27 -80 84 -45 c217 -117 339 -260
355 -418 7 -62 8 -63 66 -110 32 -26 61 -58 65 -71 9 -36 -9 -74 -40 -85 -24
-9 -53 3 -240 95 l-212 105 -50 -18 c-38 -14 -73 -18 -150 -15 -91 3 -108 6
-189 42 -49 22 -88 45 -87 50 2 6 32 15 68 22 56 10 143 52 143 68 0 8 -166
89 -285 140 -126 54 -414 145 -465 147 -19 1 -64 -7 -100 -16 -47 -14 -86 -17
-145 -13 -99 6 -187 25 -182 40 2 6 46 34 99 61 52 28 102 57 111 65 23 18 21
59 -3 116 -24 57 -24 55 0 55 36 0 147 -57 193 -99 l44 -41 199 15 c118 9 238
13 295 9 l95 -7 41 47 c46 53 73 119 73 181 0 75 16 73 73 -7z"/>
</g>
</svg>
